<svg width="50px" height="50px" xmlns="http://www.w3.org/2000/svg" viewBox="0 0 32 32"><path fill="#eeadea" d="M24.42,5.49A11.91,11.91,0,1,0,7.58,22.34l7.12,7.12a1.84,1.84,0,0,0,2.6,0l7.12-7.12a11.91,11.91,0,0,0,0-16.85Z"/><path fill="#eec1ea" d="M7.58,5.49a11.91,11.91,0,0,0,0,16.85l7.12,7.12A1.83,1.83,0,0,0,16,30V2A11.83,11.83,0,0,0,7.58,5.49Z"/><circle cx="16" cy="13.42" r="4.98" fill="#fffbbe"/><path fill="#be97dc" d="M24.42,5.49A11.91,11.91,0,1,0,7.58,22.34l7.12,7.12a1.84,1.84,0,0,0,2.6,0l7.12-7.12a11.91,11.91,0,0,0,0-16.85ZM23,20.92l-7,7-7-7a9.91,9.91,0,1,1,14,0Z"/><path fill="#be97dc" d="M16,8.43a5,5,0,0,0-1,9.87v4.08a1,1,0,0,0,2,0V18.3a5,5,0,0,0-1-9.87Zm0,8a3,3,0,1,1,3-3A3,3,0,0,1,16,16.4Z"/></svg>