<svg xmlns="http://www.w3.org/2000/svg" viewBox="0 0 48 48"><g data-name="Blood Drop VIrus"><path fill="#f26674" d="M30.31,45.22A12,12,0,0,1,12,35c0-6.63,12-23,12-23a123.51,123.51,0,0,1,9.51,15.32A10,10,0,0,0,30.31,45.22Z"/><path fill="#db5669" d="M30.31,45.22A12,12,0,0,1,12,35c0-4.9,6.55-15.12,10-20.12C18.49,20.25,14,28,14,32A12,12,0,0,0,28.6,43.72,9.78,9.78,0,0,0,30.31,45.22Z"/><path fill="#f26674" d="M13,13C13,9.69,7,1,7,1S1,9.69,1,13a6,6,0,0,0,12,0Z"/><path fill="#db5669" d="M2,11A10.21,10.21,0,0,1,3.11,7.35C2,9.5,1,11.68,1,13a6,6,0,0,0,11.77,1.63A6,6,0,0,1,2,11Z"/><path fill="#dad7e5" d="M46,37a10,10,0,0,1-15.69,8.22C22.22,39.62,26.32,27,36,27A10,10,0,0,1,46,37Z"/><path fill="#db5669" d="M28.6,43.72a11.89,11.89,0,0,1-3.27.26A10,10,0,0,1,28,31a10.33,10.33,0,0,0-2,6A9.93,9.93,0,0,0,28.6,43.72Z"/><path fill="#c4455e" d="M30.31,45.22a11.89,11.89,0,0,1-2.91,1.29A9.94,9.94,0,0,1,25.33,44a12.23,12.23,0,0,0,3.27-.26A9.78,9.78,0,0,0,30.31,45.22Z"/><path fill="#edebf2" d="M46,37a10,10,0,0,1-2,6A10,10,0,0,1,30,29,10,10,0,0,1,46,37Z"/><path fill="#db5669" d="M18 37a1 1 0 0 0-2 0A1 1 0 0 0 18 37zM24 31a1 1 0 0 0-2 0A1 1 0 0 0 24 31zM20 27a1 1 0 0 0-2 0A1 1 0 0 0 20 27zM28 25a1 1 0 0 0-2 0A1 1 0 0 0 28 25zM25 20a1 1 0 0 0-2 0A1 1 0 0 0 25 20zM24 42a1 1 0 0 0-2 0A1 1 0 0 0 24 42zM23 36a1 1 0 0 0-2 0A1 1 0 0 0 23 36zM9 15a1 1 0 0 0-2 0A1 1 0 0 0 9 15zM6 12a1 1 0 0 0-2 0A1 1 0 0 0 6 12zM9 9A1 1 0 0 0 7 9 1 1 0 0 0 9 9z"/><path fill="#f26674" d="M47,13c0-3.31-6-12-6-12s-6,8.69-6,12a6,6,0,0,0,12,0Z"/><path fill="#db5669" d="M36,11a10.21,10.21,0,0,1,1.11-3.65C36,9.5,35,11.68,35,13a6,6,0,0,0,11.77,1.63A6,6,0,0,1,36,11Z"/><path fill="#db5669" d="M43 15a1 1 0 0 0-2 0A1 1 0 0 0 43 15zM40 12a1 1 0 0 0-2 0A1 1 0 0 0 40 12zM43 9a1 1 0 0 0-2 0A1 1 0 0 0 43 9z"/><path fill="#9dcc6b" d="M35 33V32a1 1 0 0 1 2 0v1A1 1 0 0 1 35 33zM35 42V41a1 1 0 0 1 2 0v1A1 1 0 0 1 35 42zM32 38H31a1 1 0 0 1 0-2h1A1 1 0 0 1 32 38zM41 38H40a1 1 0 0 1 0-2h1A1 1 0 0 1 41 38zM33.17 35.17c-.49 0-.64-.22-1.41-1a1 1 0 0 1 1.41-1.41l.71.7A1 1 0 0 1 33.17 35.17zM39.54 41.54c-.5 0-.64-.23-1.42-1a1 1 0 0 1 1.42-1.42l.7.71A1 1 0 0 1 39.54 41.54zM33.17 38.83c-.49 0-.64.22-1.41 1a1 1 0 0 0 1.41 1.41l.71-.7A1 1 0 0 0 33.17 38.83zM39.54 32.46c-.5 0-.64.23-1.42 1a1 1 0 0 0 1.42 1.42l.7-.71A1 1 0 0 0 39.54 32.46z"/><circle cx="36" cy="37" r="4" fill="#9dcc6b"/><path fill="#a82af4" d="M36 36a1 1 0 0 0-2 0A1 1 0 0 0 36 36zM38 38a1 1 0 0 0-2 0A1 1 0 0 0 38 38z"/></g></svg>